<?xml version="1.0" encoding="utf-8"?>
<!-- Generator: Adobe Illustrator 23.0.0, SVG Export Plug-In . SVG Version: 6.00 Build 0)  -->
<svg version="1.1" id="Layer_1" xmlns="http://www.w3.org/2000/svg" xmlns:xlink="http://www.w3.org/1999/xlink" x="0px" y="0px"
	 viewBox="0 0 179.6 48" style="enable-background:new 0 0 179.6 48;" xml:space="preserve">
<style type="text/css">
	.st0{filter:url(#Adobe_OpacityMaskFilter);}
	.st1{fill-rule:evenodd;clip-rule:evenodd;fill:#FFFFFF;}
	.st2{mask:url(#mask-2_1_);fill-rule:evenodd;clip-rule:evenodd;fill:#009D90;}
	.st3{filter:url(#Adobe_OpacityMaskFilter_1_);}
	.st4{mask:url(#mask-2_2_);fill-rule:evenodd;clip-rule:evenodd;fill:#DC3E38;}
	.st5{fill-rule:evenodd;clip-rule:evenodd;fill:#30414F;}
	.st6{fill:#30414F;}
</style>
<title>Group</title>
<desc>Created with Sketch.</desc>
<g id="Group-4">
	<g id="Clip-2">
	</g>
	<defs>
		<filter id="Adobe_OpacityMaskFilter" filterUnits="userSpaceOnUse" x="13.5" y="0" width="20.6" height="47.8">
			<feColorMatrix  type="matrix" values="1 0 0 0 0  0 1 0 0 0  0 0 1 0 0  0 0 0 1 0"/>
		</filter>
	</defs>
	<mask maskUnits="userSpaceOnUse" x="13.5" y="0" width="20.6" height="47.8" id="mask-2_1_">
		<g class="st0">
			<polygon id="path-1_1_" class="st1" points="0,0 0,47.9 47.5,47.9 47.5,0 			"/>
		</g>
	</mask>
	<path id="Fill-1" class="st2" d="M17.7,39.4l1.9,4c3.1-1.9,5.5-4.8,6.7-8.3c1.4-4,1.2-8.3-0.6-12.2c-2.5-5.2-0.6-11.4,4-14.5
		l-1.9-4c-6.9,4.2-9.6,13-6.1,20.4c1.3,2.8,1.4,5.9,0.4,8.8C21.3,36,19.8,38,17.7,39.4z M18.1,47.9l-4.7-9.9l1.5-0.7
		c2-0.9,3.5-2.6,4.2-4.7c0.7-2.1,0.6-4.3-0.3-6.3c-4.5-9.6-0.4-21,9.1-25.6L29.4,0l4.7,9.9l-1.5,0.7c-4.1,1.9-5.8,6.8-3.9,10.9
		c2.2,4.6,2.4,9.8,0.7,14.7c-1.7,4.8-5.2,8.7-9.8,10.9L18.1,47.9L18.1,47.9z"/>
	<defs>
		<filter id="Adobe_OpacityMaskFilter_1_" filterUnits="userSpaceOnUse" x="0" y="13.6" width="47.5" height="20.8">
			<feColorMatrix  type="matrix" values="1 0 0 0 0  0 1 0 0 0  0 0 1 0 0  0 0 0 1 0"/>
		</filter>
	</defs>
	<mask maskUnits="userSpaceOnUse" x="0" y="13.6" width="47.5" height="20.8" id="mask-2_2_">
		<g class="st3">
			<polygon id="path-1_2_" class="st1" points="0,0 0,47.9 47.5,47.9 47.5,0 			"/>
		</g>
	</mask>
	<path id="Fill-3" class="st4" d="M29.6,24.8c3.9,0,7.5,2,9.5,5.2l4-1.9c-2.8-4.7-8-7.7-13.6-7.7c-2.3,0-4.6,0.5-6.7,1.5
		C21.3,22.7,19.7,23,18,23c-3.9,0-7.5-2-9.5-5.2l-4,1.9c2.8,4.7,8,7.7,13.6,7.7c2.3,0,4.6-0.5,6.7-1.5
		C26.2,25.2,27.9,24.8,29.6,24.8z M37.7,34.3L37,32.8c-1.3-2.9-4.2-4.7-7.4-4.7c-1.2,0-2.4,0.3-3.5,0.8c-2.6,1.2-5.3,1.8-8.1,1.8
		c-7.4,0-14.2-4.3-17.3-11L0,18.2l9.9-4.7l0.7,1.5c1.3,2.9,4.2,4.7,7.4,4.7c1.2,0,2.4-0.3,3.5-0.8c2.6-1.2,5.3-1.8,8.1-1.8
		c7.4,0,14.2,4.3,17.3,11l0.7,1.5L37.7,34.3L37.7,34.3z"/>
</g>
<path id="Fill-5" class="st5" d="M66.8,10.6v17.1c0,4.5-2,7.2-6.6,7.2c-0.8,0-1.5-0.1-2.2-0.3l0.6-3.7c0.4,0.1,1,0.2,1.5,0.2
	c2,0,2.4-1.1,2.4-3.2V10.6H66.8"/>
<path id="Fill-6" class="st5" d="M78,19c-0.3-0.3-0.7-0.5-1.3-0.5c-0.8,0-1.2,0.2-1.5,0.5c-0.5,0.6-0.7,1.8-0.7,3.3
	c0,1.5,0.2,2.7,0.6,3.1c0.3,0.3,0.7,0.5,1.4,0.5c0.7,0,1.2-0.2,1.4-0.6c0.5-0.6,0.7-1.7,0.7-3.3C78.7,20.6,78.5,19.5,78,19z
	 M81.1,27.8c-1.1,1.1-2.5,1.6-4.6,1.6c-2,0-3.4-0.5-4.4-1.5c-1.4-1.3-1.8-2.9-1.8-5.6c0-2.7,0.5-4.4,1.8-5.8
	c1.1-1.1,2.5-1.7,4.6-1.7c2,0,3.4,0.5,4.4,1.5c1.4,1.3,1.8,3,1.8,5.6C82.9,24.8,82.5,26.5,81.1,27.8L81.1,27.8z"/>
<path id="Fill-7" class="st5" d="M94.4,28.2c-1.3,4.5-3.3,7-6.7,7c-1.1,0-2.1-0.3-2.7-0.6l1.2-3.4c0.3,0.2,0.9,0.3,1.3,0.3
	c1.4,0,2-0.8,2.7-3h-1.9l-4-13.1h4.4l2.6,10.5l2.3-10.5h4.3L94.4,28.2"/>
<path class="st5" d="M104.1,29.3c-1.3,0-3-0.4-4-1.4l-0.2-0.2l1.2-1.7l0.2,0.2c1,0.8,2.2,1,3,1c1.5,0,2.1-0.5,2.1-1.8
	c0-1.2-1.2-1.7-2.6-2.3c-1.7-0.7-3.7-1.5-3.7-4.1c0-1.2,0.4-2.1,1.3-2.7c0.9-0.7,1.9-1,3.2-1c1.1,0,2.6,0.3,3.6,1.1l0.2,0.2
	l-1.1,1.7l-0.2-0.2c-0.7-0.5-1.7-0.8-2.7-0.8c-1.4,0-1.9,0.5-1.9,1.6c0,1,0.9,1.4,2.4,2.1c1.7,0.7,3.9,1.5,3.9,4.3
	c0,1.3-0.6,2.4-1.5,3.1C106.5,29,105.3,29.3,104.1,29.3z"/>
<path id="Fill-9" class="st5" d="M119.7,28.9c-0.8,0.2-1.8,0.3-2.7,0.3c-3.3,0-3.9-1.5-3.9-4.6v-6.5h-2.4V16h2.4v-3.8l2.4-0.3V16h4
	v2.1h-4v6.4c0,1.9,0.1,2.6,1.9,2.6c0.6,0,1.5-0.1,2.1-0.3L119.7,28.9"/>
<path id="Fill-10" class="st5" d="M125.9,15.7l0,2.6c0.8-2.1,2.1-3,3.7-3c0.6,0,1.1,0.1,1.6,0.4l-0.7,2.2c-0.2-0.2-0.8-0.2-1.1-0.2
	c-2.3,0-3.3,3-3.3,6.1V29h-2.4V15.7H125.9"/>
<path id="Fill-11" class="st5" d="M141.1,20.9c0-2.2-0.5-3.5-2.8-3.5c-2.4,0-3.1,1.4-3.2,3.5L141.1,20.9z M143.5,27.1
	c-1.4,1.5-3,2.2-5.2,2.2c-1.9,0-3.2-0.5-4.1-1.4c-1.1-1.1-1.6-2.6-1.6-5.1c0-2.1,0.4-4.3,1.6-5.6c0.8-1,2.2-1.7,4.2-1.7
	c3.8,0,5.2,2.6,5.2,5.7c0,0.4,0,1.1-0.1,1.6l-8.5,0.1c0.1,2.7,0.5,4.5,3.2,4.5c1.6,0,2.9-0.6,3.9-1.6L143.5,27.1L143.5,27.1z"/>
<path id="Fill-12" class="st5" d="M152.3,23c-2.1,0-3.4,0.3-3.4,2.4c0,1.3,0.5,2,1.8,2c1.7,0,3.7-1.3,3.8-4.4H152.3z M147,17.3
	c1.2-1.4,2.9-1.9,4.8-1.9c3.3,0,5,1.4,5,4.9V29h-2.2l0-2.2c-0.8,1.7-2.5,2.5-4.2,2.5c-1.2,0-2.2-0.4-2.8-1c-0.7-0.7-1.1-1.6-1.1-2.9
	c0-1.5,0.5-2.5,1.5-3.2c1.1-0.8,2.8-1.1,4.6-1.1h1.9v-0.7c0-2.3-0.7-3-2.7-3c-1.5,0-2.5,0.4-3.4,1.4L147,17.3L147,17.3z"/>
<path id="Fill-13" class="st5" d="M163.8,15.7v2.8c0.6-1.9,2-3.1,4.2-3.1c2,0,3.2,1,3.6,3.2c0.7-1.9,2.1-3.2,4.2-3.2
	c2.4,0,3.8,1.6,3.8,4.4V29h-2.4v-8.7c0-1.8-0.4-2.8-1.8-2.8c-1.9,0-3.7,1.9-3.7,6.7V29h-2.4v-8.7c0-1.7-0.3-2.7-1.8-2.7
	c-1.9,0-3.6,1.9-3.6,6.7V29h-2.4V15.7H163.8"/>
<g>
	<path class="st6" d="M142.5,40.4c-0.4,0-0.8-0.1-1.1-0.3c-0.3-0.2-0.6-0.4-0.8-0.7c-0.2-0.3-0.4-0.6-0.5-1s-0.2-0.7-0.2-1.1
		c0-0.5,0.1-1,0.3-1.5c0.2-0.5,0.5-0.9,0.9-1.4c0.4-0.4,0.8-0.7,1.3-1c0.5-0.3,1.1-0.4,1.6-0.4c0.6,0,1.1,0.1,1.5,0.4
		c0.4,0.3,0.6,0.7,0.8,1.1l-1,0.6c0-0.2-0.1-0.4-0.2-0.5c-0.1-0.1-0.2-0.3-0.4-0.3c-0.1-0.1-0.3-0.1-0.4-0.2c-0.2,0-0.3-0.1-0.5-0.1
		c-0.4,0-0.8,0.1-1.1,0.3c-0.3,0.2-0.6,0.4-0.9,0.7c-0.2,0.3-0.4,0.6-0.5,1c-0.1,0.4-0.2,0.7-0.2,1.1c0,0.3,0,0.5,0.1,0.8
		s0.2,0.5,0.3,0.7c0.1,0.2,0.3,0.3,0.5,0.5c0.2,0.1,0.4,0.2,0.7,0.2c0.2,0,0.3,0,0.5-0.1c0.2,0,0.4-0.1,0.5-0.2s0.3-0.2,0.5-0.4
		c0.2-0.1,0.3-0.3,0.4-0.5l0.8,0.5c-0.2,0.3-0.4,0.5-0.6,0.7c-0.2,0.2-0.5,0.4-0.8,0.5c-0.3,0.1-0.6,0.2-0.9,0.3
		S142.8,40.4,142.5,40.4z"/>
	<path class="st6" d="M147.8,33.3h1.1l-1.3,6.1h3.6l-0.2,1h-4.7L147.8,33.3z"/>
	<path class="st6" d="M155.3,33.3h1l1.1,7.1h-1.2l-0.3-1.9h-2.6l-1.1,1.9h-1.2L155.3,33.3z M156,37.6l-0.4-3l-1.7,3H156z"/>
	<path class="st6" d="M160.5,40.5c-0.5,0-1-0.1-1.4-0.2c-0.5-0.2-0.8-0.4-1.2-0.7l0.7-1c0.1,0.1,0.1,0.2,0.3,0.3
		c0.1,0.1,0.3,0.2,0.5,0.3c0.2,0.1,0.4,0.2,0.6,0.2c0.2,0.1,0.5,0.1,0.7,0.1c0.5,0,0.8-0.1,1.1-0.3c0.3-0.2,0.4-0.5,0.4-0.8
		c0-0.1,0-0.3-0.1-0.4c-0.1-0.1-0.2-0.2-0.3-0.3s-0.3-0.2-0.5-0.2c-0.2-0.1-0.4-0.1-0.7-0.2c-0.5-0.2-0.9-0.3-1.2-0.6
		c-0.3-0.2-0.4-0.5-0.4-1c0-0.4,0.1-0.8,0.2-1.1s0.4-0.6,0.6-0.8c0.3-0.2,0.6-0.4,0.9-0.5c0.4-0.1,0.7-0.2,1.1-0.2
		c0.5,0,0.9,0.1,1.2,0.2c0.4,0.2,0.7,0.3,0.9,0.6l-0.7,0.9c0-0.1-0.1-0.2-0.2-0.2s-0.2-0.2-0.4-0.2c-0.1-0.1-0.3-0.1-0.5-0.2
		s-0.4-0.1-0.6-0.1c-0.5,0-0.9,0.1-1.1,0.3s-0.4,0.5-0.4,0.8c0,0.1,0,0.2,0.1,0.3c0.1,0.1,0.1,0.2,0.3,0.2c0.1,0.1,0.3,0.1,0.4,0.2
		s0.4,0.1,0.6,0.2c0.3,0.1,0.5,0.2,0.8,0.2c0.2,0.1,0.4,0.2,0.6,0.3c0.2,0.1,0.3,0.3,0.4,0.5c0.1,0.2,0.1,0.4,0.1,0.6
		c0,0.4-0.1,0.8-0.2,1.1c-0.2,0.3-0.4,0.6-0.7,0.8s-0.6,0.3-1,0.4C161.2,40.4,160.9,40.5,160.5,40.5z"/>
	<path class="st6" d="M166.4,40.5c-0.5,0-1-0.1-1.4-0.2c-0.5-0.2-0.8-0.4-1.2-0.7l0.7-1c0.1,0.1,0.1,0.2,0.3,0.3
		c0.1,0.1,0.3,0.2,0.5,0.3c0.2,0.1,0.4,0.2,0.6,0.2c0.2,0.1,0.5,0.1,0.7,0.1c0.5,0,0.8-0.1,1.1-0.3c0.3-0.2,0.4-0.5,0.4-0.8
		c0-0.1,0-0.3-0.1-0.4c-0.1-0.1-0.2-0.2-0.3-0.3s-0.3-0.2-0.5-0.2c-0.2-0.1-0.4-0.1-0.7-0.2c-0.5-0.2-0.9-0.3-1.2-0.6
		c-0.3-0.2-0.4-0.5-0.4-1c0-0.4,0.1-0.8,0.2-1.1s0.4-0.6,0.6-0.8c0.3-0.2,0.6-0.4,0.9-0.5c0.4-0.1,0.7-0.2,1.1-0.2
		c0.5,0,0.9,0.1,1.2,0.2c0.4,0.2,0.7,0.3,0.9,0.6l-0.7,0.9c0-0.1-0.1-0.2-0.2-0.2s-0.2-0.2-0.4-0.2c-0.1-0.1-0.3-0.1-0.5-0.2
		s-0.4-0.1-0.6-0.1c-0.5,0-0.9,0.1-1.1,0.3s-0.4,0.5-0.4,0.8c0,0.1,0,0.2,0.1,0.3c0.1,0.1,0.1,0.2,0.3,0.2c0.1,0.1,0.3,0.1,0.4,0.2
		s0.4,0.1,0.6,0.2c0.3,0.1,0.5,0.2,0.8,0.2c0.2,0.1,0.4,0.2,0.6,0.3c0.2,0.1,0.3,0.3,0.4,0.5c0.1,0.2,0.1,0.4,0.1,0.6
		c0,0.4-0.1,0.8-0.2,1.1c-0.2,0.3-0.4,0.6-0.7,0.8s-0.6,0.3-1,0.4C167.1,40.4,166.8,40.5,166.4,40.5z"/>
	<path class="st6" d="M171.5,33.3h1.1l-1.5,7.1H170L171.5,33.3z"/>
	<path class="st6" d="M175.5,40.4c-0.4,0-0.8-0.1-1.1-0.3c-0.3-0.2-0.6-0.4-0.8-0.7c-0.2-0.3-0.4-0.6-0.5-1s-0.2-0.7-0.2-1.1
		c0-0.5,0.1-1,0.3-1.5c0.2-0.5,0.5-0.9,0.9-1.4c0.4-0.4,0.8-0.7,1.3-1c0.5-0.3,1.1-0.4,1.6-0.4c0.6,0,1.1,0.1,1.5,0.4
		c0.4,0.3,0.6,0.7,0.8,1.1l-1,0.6c0-0.2-0.1-0.4-0.2-0.5c-0.1-0.1-0.2-0.3-0.4-0.3c-0.1-0.1-0.3-0.1-0.4-0.2c-0.2,0-0.3-0.1-0.5-0.1
		c-0.4,0-0.8,0.1-1.1,0.3c-0.3,0.2-0.6,0.4-0.9,0.7c-0.2,0.3-0.4,0.6-0.5,1c-0.1,0.4-0.2,0.7-0.2,1.1c0,0.3,0,0.5,0.1,0.8
		s0.2,0.5,0.3,0.7c0.1,0.2,0.3,0.3,0.5,0.5c0.2,0.1,0.4,0.2,0.7,0.2c0.2,0,0.3,0,0.5-0.1c0.2,0,0.4-0.1,0.5-0.2s0.3-0.2,0.5-0.4
		c0.2-0.1,0.3-0.3,0.4-0.5l0.8,0.5c-0.2,0.3-0.4,0.5-0.6,0.7c-0.2,0.2-0.5,0.4-0.8,0.5c-0.3,0.1-0.6,0.2-0.9,0.3
		S175.8,40.4,175.5,40.4z"/>
</g>
</svg>
