<?xml version="1.0" encoding="UTF-8" standalone="no"?>
<svg width="183px" height="48px" viewBox="0 0 183 48" version="1.1" xmlns="http://www.w3.org/2000/svg" xmlns:xlink="http://www.w3.org/1999/xlink">
    <!-- Generator: Sketch 43.2 (39069) - http://www.bohemiancoding.com/sketch -->
    <title>Group</title>
    <desc>Created with Sketch.</desc>
    <defs>
        <polygon id="path-1" points="0.024454343 0.0201025641 0.024454343 47.8650256 47.5319065 47.8650256 47.5319065 0.0201025641 0.024454343 0.0201025641"></polygon>
    </defs>
    <g id="Page-1" stroke="none" stroke-width="1" fill="none" fill-rule="evenodd">
        <g id="Artboard" transform="translate(-128.000000, -63.000000)">
            <g id="Group" transform="translate(128.000000, 63.000000)">
                <g id="Group-4">
                    <mask id="mask-2" fill="white">
                        <use xlink:href="#path-1"></use>
                    </mask>
                    <g id="Clip-2"></g>
                    <path d="M17.7440713,39.3899487 L19.6327617,43.4211282 C22.7352027,41.5384615 25.0836347,38.6588718 26.3275457,35.1708718 C27.7573096,31.1622564 27.5535234,26.8393846 25.7536837,22.9989744 C23.3021359,17.7669744 25.1247996,11.5934359 29.7886503,8.496 L27.8991448,4.46482051 C21.0486682,8.62851282 18.291441,17.4453333 21.7782227,24.8861538 C23.0783786,27.6607179 23.2259198,30.7827692 22.1939465,33.6771282 C21.3478263,36.0484103 19.7941604,38.0307692 17.7440713,39.3899487 Z M18.1100713,47.8650256 L13.4531492,37.9265641 L14.9273385,37.2262564 C16.8963207,36.2912821 18.3872205,34.6371282 19.1249265,32.5682051 C19.8626325,30.4992821 19.7578864,28.2683077 18.829029,26.286359 C14.3404343,16.7072821 18.4308307,5.2385641 27.9472383,0.720410256 L29.4214276,0.0201025641 L34.0791648,9.9585641 L32.6045679,10.6588718 C28.5325122,12.592 26.7819889,17.4998974 28.7028775,21.5987692 C30.8740156,26.2322051 31.1205969,31.4461538 29.3961581,36.2797949 C27.6725345,41.1138462 24.1877906,44.9796923 19.5846682,47.1651282 L18.1100713,47.8650256 L18.1100713,47.8650256 Z" id="Fill-1" fill="#009D90" mask="url(#mask-2)"></path>
                    <path d="M29.5628552,24.8451282 C33.421343,24.8451282 37.013686,26.8266667 39.1094232,30.0057436 L43.114637,28.1037949 C40.2722272,23.3891282 35.1115457,20.4209231 29.5510356,20.4209231 C27.2156459,20.4209231 24.9540267,20.9325128 22.8285367,21.9417436 C21.2936192,22.670359 19.6584388,23.04 17.9694588,23.04 C14.110971,23.0404103 10.5182205,21.0584615 8.42289087,17.8793846 L4.41726949,19.7813333 C7.25967929,24.496 12.4203608,27.4646154 17.9808708,27.4646154 C20.3162606,27.4646154 22.5778797,26.9526154 24.7033697,25.9433846 C26.2386949,25.214359 27.8738753,24.8451282 29.5628552,24.8451282 Z M37.6584655,34.3232821 L36.9627394,32.8389744 C35.6214187,29.9766154 32.7170579,28.1271795 29.5628552,28.1271795 C28.3584788,28.1271795 27.1915991,28.3909744 26.0944143,28.912 C23.530784,30.1292308 20.8008641,30.7466667 17.9808708,30.7466667 C10.6152227,30.7466667 3.83036526,26.4237949 0.695726058,19.7337436 L0,18.2498462 L9.87384855,13.5614359 L10.569167,15.0457436 C11.9108953,17.9089231 14.8152561,19.758359 17.9690512,19.7579487 C19.1738352,19.7579487 20.3407149,19.4937436 21.4374922,18.9731282 C24.0011225,17.7558974 26.7310423,17.1388718 29.5510356,17.1388718 C36.9166837,17.1388718 43.7015412,21.4613333 46.836588,28.1513846 L47.5319065,29.6356923 L37.6584655,34.3232821 L37.6584655,34.3232821 Z" id="Fill-3" fill="#DC3E38" mask="url(#mask-2)"></path>
                </g>
                <path d="M66.8471693,13.6229744 L66.8471693,30.6830769 C66.8471693,35.1417436 64.8843007,37.8654359 60.2954432,37.8654359 C59.4998619,37.8654359 58.757265,37.7854359 58.0941448,37.5450256 L58.6777884,33.8605128 C59.1020713,33.9942564 59.6857149,34.0742564 60.1894744,34.0742564 C62.1788352,34.0742564 62.5770334,33.0059487 62.5770334,30.8968205 L62.5770334,13.6229744 L66.8471693,13.6229744" id="Fill-5" fill="#30414F"></path>
                <path d="M78.039922,22.0061538 C77.7745924,21.6861538 77.3503096,21.5257436 76.7136815,21.5257436 C75.9445924,21.5257436 75.4673252,21.7661538 75.2284878,22.0598974 C74.7508129,22.6203077 74.5653675,23.8752821 74.5653675,25.3435897 C74.5653675,26.8918974 74.7773051,28.0402051 75.1755033,28.4672821 C75.4404254,28.7610256 75.9181002,28.9481026 76.5547283,28.9481026 C77.270833,28.9481026 77.721608,28.7076923 77.9869376,28.3872821 C78.4642049,27.8264615 78.6765501,26.6785641 78.6765501,25.1031795 C78.6765501,23.6348718 78.4911047,22.5403077 78.039922,22.0061538 Z M81.0637016,30.8434872 C79.9498062,31.9113846 78.5436815,32.4455385 76.5017439,32.4455385 C74.5123831,32.4455385 73.1331581,31.9380513 72.0983318,30.9768205 C70.7191069,29.7222564 70.2948241,28.0402051 70.2948241,25.4235897 C70.2948241,22.673641 70.7724989,20.992 72.1248241,19.6570256 C73.2391269,18.5620513 74.6713363,18.001641 76.7136815,18.001641 C78.6765501,18.001641 80.1087595,18.5087179 81.1431782,19.4699487 C82.4959109,20.7249231 82.9206013,22.4603077 82.9206013,25.0765128 C82.9206013,27.7735385 82.4694187,29.4818462 81.0637016,30.8434872 L81.0637016,30.8434872 Z" id="Fill-6" fill="#30414F"></path>
                <path d="M94.4312606,31.2443077 C93.158412,35.7563077 91.0895746,38.2658462 87.7739733,38.2658462 C86.7126548,38.2658462 85.6517439,37.9987692 85.1214922,37.6250256 L86.3682561,34.2346667 C86.7126548,34.448 87.2698062,34.5546667 87.6675969,34.5546667 C89.0207372,34.5546667 89.7099421,33.7267692 90.320078,31.537641 L88.4101938,31.537641 L84.4053875,18.4287179 L88.8348842,18.4287179 L91.4074811,28.894359 L93.7416481,18.4287179 L98.0651759,18.4287179 L94.4312606,31.2443077" id="Fill-7" fill="#30414F"></path>
                <path d="M109.734788,16.64 C108.488432,15.7587692 106.923762,15.4650256 105.67659,15.4650256 C103.873082,15.4650256 102.546842,16.0791795 102.546842,18.1883077 C102.546842,22.2465641 111.459227,20.6978462 111.459227,27.1323077 C111.459227,29.0014359 110.610661,30.3893333 109.442967,31.1909744 C108.355563,31.9380513 106.790893,32.3384615 105.199323,32.3384615 C103.422307,32.3384615 101.08814,31.8313846 99.788392,30.5230769 L101.061648,28.7076923 C102.334904,29.7755897 104.005951,30.176 105.570621,30.176 C107.374129,30.176 108.939207,29.6418462 108.939207,27.2393846 C108.939207,22.8073846 100.053722,24.5156923 100.053722,18.2420513 C100.053722,16.56 100.743334,15.4650256 101.777753,14.6642051 C102.971532,13.7563077 104.430234,13.3292308 106.047889,13.3292308 C107.612967,13.3292308 109.62882,13.7563077 110.928568,14.8246154 L109.734788,16.64" id="Fill-8" fill="#30414F"></path>
                <path d="M122.652388,31.8847179 C121.855991,32.1251282 120.874964,32.2317949 119.999499,32.2317949 C116.73729,32.2317949 116.074169,30.7368205 116.074169,27.6131282 L116.074169,21.072 L113.660118,21.072 L113.660118,18.9624615 L116.074169,18.9624615 L116.074169,15.1179487 L118.434829,14.8246154 L118.434829,18.9624615 L122.466535,18.9624615 L122.466535,21.072 L118.434829,21.072 L118.434829,27.4793846 C118.434829,29.3481026 118.56729,30.1226667 120.344305,30.1226667 C120.980933,30.1226667 121.803414,30.0155897 122.440042,29.8555897 L122.652388,31.8847179" id="Fill-9" fill="#30414F"></path>
                <path d="M128.911069,18.7224615 L128.884577,21.3657436 C129.653666,19.2832821 131.032891,18.4020513 132.571477,18.4020513 C133.154713,18.4020513 133.711864,18.5353846 134.162639,18.7757949 L133.499519,21.0186667 C133.261089,20.8582564 132.73043,20.7782564 132.359131,20.7782564 C130.051457,20.7782564 129.017038,23.7419487 129.017038,26.9189744 L129.017038,32.0451282 L126.629886,32.0451282 L126.629886,18.7224615 L128.911069,18.7224615" id="Fill-10" fill="#30414F"></path>
                <path d="M144.135935,23.8752821 C144.16202,21.7128205 143.684753,20.4045128 141.350586,20.4045128 C138.936942,20.4045128 138.246922,21.7928205 138.114461,23.9019487 L144.135935,23.8752821 Z M146.469695,30.1497436 C145.037078,31.6180513 143.445915,32.3117949 141.244617,32.3117949 C139.387717,32.3117949 138.088376,31.8047179 137.186419,30.8968205 C136.1251,29.8289231 135.568356,28.3068718 135.568356,25.7706667 C135.568356,23.6619487 135.966147,21.4457436 137.133434,20.1374359 C137.982,19.1762051 139.308241,18.4020513 141.377078,18.4020513 C145.196439,18.4020513 146.602156,20.9649231 146.602156,24.1156923 C146.602156,24.5427692 146.576071,25.2369231 146.522679,25.744 L138.034984,25.7973333 C138.088376,28.5206154 138.512659,30.256 141.244617,30.256 C142.83578,30.256 144.135935,29.6689231 145.170354,28.654359 L146.469695,30.1497436 L146.469695,30.1497436 Z" id="Fill-11" fill="#30414F"></path>
                <path d="M155.327873,25.9844103 C153.205644,25.9844103 151.906303,26.3314872 151.906303,28.3606154 C151.906303,29.6155897 152.383978,30.3630769 153.710218,30.3630769 C155.407757,30.3630769 157.423203,29.0547692 157.502679,25.9844103 L155.327873,25.9844103 Z M150.023318,20.3245128 C151.269675,18.9362051 152.887737,18.4553846 154.823706,18.4553846 C158.112815,18.4553846 159.810762,19.8170256 159.810762,23.3144615 L159.810762,32.0451282 L157.609056,32.0451282 L157.582563,29.8289231 C156.733998,31.537641 155.115935,32.3384615 153.365004,32.3384615 C152.14514,32.3384615 151.163706,31.9647179 150.527078,31.3243077 C149.810566,30.6568205 149.466167,29.7222564 149.466167,28.4672821 C149.466167,26.9189744 149.996419,25.9577436 150.978261,25.2631795 C152.118241,24.4627692 153.736303,24.1690256 155.566303,24.1690256 L157.476595,24.1690256 L157.476595,23.5015385 C157.476595,21.2053333 156.786982,20.4578462 154.744637,20.4578462 C153.285528,20.4578462 152.277601,20.8315897 151.322659,21.8194872 L150.023318,20.3245128 L150.023318,20.3245128 Z" id="Fill-12" fill="#30414F"></path>
                <path d="M166.83894,18.7224615 L166.83894,21.4990769 C167.448668,19.6299487 168.854385,18.4020513 171.002699,18.4020513 C172.965976,18.4020513 174.212332,19.4432821 174.636615,21.5524103 C175.299735,19.6836923 176.758844,18.4020513 178.854174,18.4020513 C181.241325,18.4020513 182.62055,20.030359 182.62055,22.8340513 L182.62055,32.0451282 L180.233399,32.0451282 L180.233399,23.3948718 C180.233399,21.6057436 179.8621,20.5911795 178.429891,20.5911795 C176.546499,20.5911795 174.769483,22.4603077 174.769483,27.2927179 L174.769483,32.0451282 L172.382332,32.0451282 L172.382332,23.3411282 C172.382332,21.6861538 172.037526,20.5911795 170.578416,20.5911795 C168.695024,20.5911795 166.944501,22.4603077 166.944501,27.2927179 L166.944501,32.0451282 L164.557757,32.0451282 L164.557757,18.7224615 L166.83894,18.7224615" id="Fill-13" fill="#30414F"></path>
            </g>
        </g>
    </g>
</svg>