<?xml version="1.0" encoding="UTF-8" standalone="no"?>
<svg width="176px" height="45px" viewBox="0 0 176 45" version="1.1" xmlns="http://www.w3.org/2000/svg" xmlns:xlink="http://www.w3.org/1999/xlink">
    <!-- Generator: Sketch 43.2 (39069) - http://www.bohemiancoding.com/sketch -->
    <title>logo-contrast</title>
    <desc>Created with Sketch.</desc>
    <defs></defs>
    <g id="Symbols" stroke="none" stroke-width="1" fill="none" fill-rule="evenodd">
        <g id="logo-contrast" fill="#FFFFFF">
            <path d="M17.0622004,36.9092308 L18.8786459,40.6884615 C21.8624143,38.9234615 24.1210156,36.2238462 25.3173452,32.9538462 C26.6924187,29.1957692 26.4964276,25.1430769 24.7654343,21.5426923 C22.4076615,16.6376923 24.1606058,10.85 28.6460579,7.94615385 L26.8288285,4.16692308 C20.240392,8.07038462 17.5886325,16.3361538 20.9416481,23.3119231 C22.1924633,25.9130769 22.3343608,28.84 21.3414699,31.5534615 C20.5281069,33.7765385 19.0338708,35.635 17.0622004,36.9092308 Z M17.4142004,44.8546154 L12.935412,35.5373077 L14.3532116,34.8807692 C16.2468775,34.0042308 17.6807483,32.4534615 18.3902361,30.5138462 C19.0997238,28.5742308 18.9985924,26.4826923 18.105657,24.6246154 C13.7887572,15.6442308 17.7226904,4.89230769 26.8750824,0.656538462 L28.292882,0 L32.7724543,9.31730769 L31.3542628,9.97384615 C27.4379688,11.7861538 25.7544053,16.3873077 27.6018174,20.23 C29.6899065,24.5738462 29.9266637,29.4619231 28.2685791,33.9934615 C26.6108864,38.5253846 23.2594388,42.1496154 18.832392,44.1984615 L17.4142004,44.8546154 L17.4142004,44.8546154 Z" id="Fill-15"></path>
            <path d="M28.4320356,23.2707692 C32.142931,23.2707692 35.5978619,25.1284615 37.6130423,28.1088462 L41.4666192,26.3257692 C38.7317595,21.9057692 33.7684811,19.1230769 28.4206682,19.1230769 C26.1746102,19.1230769 23.9991091,19.6026923 21.955314,20.5488462 C20.4791091,21.2319231 18.9064766,21.5784615 17.2821024,21.5784615 C13.5708151,21.5788462 10.1158842,19.7207692 8.10070379,16.7403846 L4.2483029,18.5234615 C6.98159465,22.9434615 11.945265,25.7265385 17.293078,25.7265385 C19.5391359,25.7265385 21.714245,25.2465385 23.7584321,24.3003846 C25.235029,23.6169231 26.8076615,23.2707692 28.4320356,23.2707692 Z M36.2179777,32.1565385 L35.5488641,30.765 C34.2588508,28.0815385 31.4651938,26.3476923 28.4320356,26.3476923 C27.2733363,26.3476923 26.1514833,26.595 25.0962673,27.0834615 C22.6306993,28.2246154 20.0052027,28.8034615 17.293078,28.8034615 C10.2091759,28.8034615 3.68384855,24.7507692 0.668721604,18.4788462 L0,17.0876923 L9.49616036,12.6923077 L10.164882,14.0838462 C11.4552873,16.7680769 14.2485523,18.5019231 17.2817105,18.5015385 C18.4404098,18.5015385 19.5626548,18.2538462 20.6174788,17.7657692 C23.0830468,16.6246154 25.7085434,16.0461538 28.4206682,16.0461538 C35.5045702,16.0461538 42.0310735,20.0984615 45.0454165,26.3703846 L45.7117862,27.7619231 L36.2179777,32.1565385 L36.2179777,32.1565385 Z" id="Fill-16"></path>
            <path d="M64.4732294,12.6923077 L64.4732294,28.6861538 C64.4732294,32.8661538 62.5838753,35.4196154 58.1701559,35.4196154 C57.4057906,35.4196154 56.6923831,35.3446154 56.0534521,35.1192308 L56.6139866,31.665 C57.0216481,31.7903846 57.5821826,31.8653846 58.0682405,31.8653846 C59.9811136,31.8653846 60.3652561,30.8638462 60.3652561,28.8865385 L60.3652561,12.6923077 L64.4732294,12.6923077" id="Fill-17"></path>
            <path d="M75.2605791,20.6773077 C75.0057906,20.3773077 74.5981292,20.2269231 73.9827171,20.2269231 C73.2457906,20.2269231 72.7871715,20.4523077 72.555902,20.7276923 C72.0972829,21.2530769 71.916971,22.4296154 71.916971,23.8061538 C71.916971,25.2576923 72.1208018,26.3342308 72.5049443,26.7346154 C72.7597327,27.01 73.2183519,27.1853846 73.8298441,27.1853846 C74.5197327,27.1853846 74.954833,26.96 75.2096214,26.6596154 C75.6682405,26.1338462 75.8720713,25.0576923 75.8720713,23.5807692 C75.8720713,22.2042308 75.6917595,21.1780769 75.2605791,20.6773077 Z M78.1690869,28.9623077 C77.0950557,29.9634615 75.7427171,30.4642308 73.7788864,30.4642308 C71.8660134,30.4642308 70.5411136,29.9884615 69.5454788,29.0873077 C68.2205791,27.9111538 67.8129176,26.3342308 67.8129176,23.8811538 C67.8129176,21.3030769 68.2715367,19.7265385 69.5729176,18.475 C70.643029,17.4484615 72.0188864,16.9230769 73.9827171,16.9230769 C75.8720713,16.9230769 77.2479287,17.3984615 78.2435635,18.2996154 C79.5449443,19.4761538 79.9526058,21.1030769 79.9526058,23.5557692 C79.9526058,26.0842308 79.5214254,27.6857692 78.1690869,28.9623077 L78.1690869,28.9623077 Z" id="Fill-18"></path>
            <path d="M90.7830735,29.3223077 C89.5561693,33.5523077 87.5688196,35.905 84.3780846,35.905 C83.358931,35.905 82.3358575,35.6546154 81.8262806,35.3042308 L83.0257461,32.1257692 C83.358931,32.3257692 83.8920267,32.4257692 84.2761693,32.4257692 C85.5775501,32.4257692 86.24,31.6496154 86.8279733,29.5973077 L84.9895768,29.5973077 L81.1403118,17.3076923 L85.3972383,17.3076923 L87.8745657,27.1192308 L90.1167038,17.3076923 L94.2756347,17.3076923 L90.7830735,29.3223077" id="Fill-19"></path>
            <path d="M105.6,15.7961538 C104.400535,14.97 102.899243,14.6946154 101.699777,14.6946154 C99.9632962,14.6946154 98.6893541,15.2703846 98.6893541,17.2476923 C98.6893541,21.0523077 107.258085,19.6003846 107.258085,25.6326923 C107.258085,27.385 106.442762,28.6861538 105.321693,29.4376923 C104.2751,30.1380769 102.769889,30.5134615 101.241158,30.5134615 C99.528196,30.5134615 97.2860579,30.0380769 96.0356347,28.8115385 L97.2586192,27.1096154 C98.4855234,28.1107692 100.09265,28.4861538 101.597862,28.4861538 C103.330423,28.4861538 104.835635,27.9853846 104.835635,25.7330769 C104.835635,21.5780769 96.2904232,23.1796154 96.2904232,17.2980769 C96.2904232,15.7211538 96.9528731,14.6946154 97.9485078,13.9438462 C99.0970156,13.0926923 100.500312,12.6923077 102.056481,12.6923077 C103.561693,12.6923077 105.498085,13.0926923 106.748508,14.0942308 L105.6,15.7961538" id="Fill-20"></path>
            <path d="M118.014076,29.84 C117.245791,30.0653846 116.305033,30.1653846 115.462272,30.1653846 C112.322494,30.1653846 111.687483,28.7638462 111.687483,25.8353846 L111.687483,19.7030769 L109.363029,19.7030769 L109.363029,17.7253846 L111.687483,17.7253846 L111.687483,14.1211538 L113.95706,13.8461538 L113.95706,17.7253846 L117.833764,17.7253846 L117.833764,19.7030769 L113.95706,19.7030769 L113.95706,25.71 C113.95706,27.4619231 114.082494,28.1880769 115.791537,28.1880769 C116.406949,28.1880769 117.194833,28.0876923 117.810245,27.9376923 L118.014076,29.84" id="Fill-21"></path>
            <path d="M124.097639,17.6080769 L124.07412,20.0861538 C124.814967,18.1338462 126.139866,17.3076923 127.617639,17.3076923 C128.182094,17.3076923 128.715189,17.4326923 129.15029,17.6580769 L128.511359,19.7607692 C128.284009,19.6103846 127.770512,19.5353846 127.413808,19.5353846 C125.195189,19.5353846 124.199555,22.3138462 124.199555,25.2923077 L124.199555,30.0980769 L121.906459,30.0980769 L121.906459,17.6080769 L124.097639,17.6080769" id="Fill-22"></path>
            <path d="M138.769532,22.4388462 C138.793051,20.4115385 138.334432,19.185 136.088374,19.185 C133.76784,19.185 133.10539,20.4865385 132.976036,22.4638462 L138.769532,22.4388462 Z M141.01167,28.3211538 C139.635813,29.6976923 138.107082,30.3480769 135.986459,30.3480769 C134.20294,30.3480769 132.952517,29.8726923 132.086236,29.0215385 C131.063163,28.0203846 130.530067,26.5934615 130.530067,24.2157692 C130.530067,22.2388462 130.91029,20.1611538 132.035278,18.9346154 C132.850601,18.0334615 134.124543,17.3076923 136.115813,17.3076923 C139.788686,17.3076923 141.141024,19.7103846 141.141024,22.6642308 C141.141024,23.0646154 141.113586,23.7153846 141.062628,24.1907692 L132.901559,24.2407692 C132.952517,26.7938462 133.360178,28.4207692 135.986459,28.4207692 C137.519109,28.4207692 138.769532,27.8703846 139.765167,26.9192308 L141.01167,28.3211538 L141.01167,28.3211538 Z" id="Fill-23"></path>
            <path d="M149.494165,24.3661538 C147.451938,24.3661538 146.201514,24.6915385 146.201514,26.5938462 C146.201514,27.7703846 146.660134,28.4711538 147.937996,28.4711538 C149.568641,28.4711538 151.508953,27.2446154 151.58343,24.3661538 L149.494165,24.3661538 Z M144.390557,19.06 C145.590022,17.7584615 147.146192,17.3076923 149.008107,17.3076923 C152.171403,17.3076923 153.805969,18.5842308 153.805969,21.8630769 L153.805969,30.0480769 L151.689265,30.0480769 L151.661826,27.9703846 C150.846503,29.5723077 149.290334,30.3230769 147.604811,30.3230769 C146.432784,30.3230769 145.488107,29.9726923 144.876615,29.3723077 C144.186726,28.7465385 143.857461,27.8703846 143.857461,26.6938462 C143.857461,25.2423077 144.367038,24.3411538 145.311715,23.69 C146.405345,22.9396154 147.961514,22.6642308 149.721514,22.6642308 L151.559911,22.6642308 L151.559911,22.0384615 C151.559911,19.8857692 150.897461,19.185 148.93363,19.185 C147.530334,19.185 146.558218,19.5353846 145.64098,20.4615385 L144.390557,19.06 L144.390557,19.06 Z" id="Fill-24"></path>
            <path d="M160.555902,20.2111538 C161.143875,18.4588462 162.496214,17.3076923 164.56196,17.3076923 C166.447394,17.3076923 167.64686,18.2838462 168.054521,20.2611538 C168.693452,18.5092308 170.096748,17.3076923 172.111537,17.3076923 C174.408552,17.3076923 175.733452,18.8342308 175.733452,21.4626923 L175.733452,30.0980769 L173.436437,30.0980769 L173.436437,21.9884615 C173.436437,20.3111538 173.079733,19.36 171.703875,19.36 C169.892918,19.36 168.183875,21.1123077 168.183875,25.6426923 L168.183875,30.0980769 L165.88686,30.0980769 L165.88686,21.9380769 C165.88686,20.3865385 165.557595,19.36 164.154298,19.36 C162.343341,19.36 160.657817,21.1123077 160.657817,25.6426923 L160.657817,30.0980769 L158.360802,30.0980769 L158.360802,17.6080769 L160.555902,17.6080769 L160.555902,20.2111538 Z" id="Fill-25"></path>
        </g>
    </g>
</svg>