<?xml version="1.0" encoding="UTF-8" standalone="no"?>
<svg width="21px" height="21px" viewBox="0 0 21 21" version="1.1" xmlns="http://www.w3.org/2000/svg" xmlns:xlink="http://www.w3.org/1999/xlink">
    <!-- Generator: Sketch 43.2 (39069) - http://www.bohemiancoding.com/sketch -->
    <title>icon/remove-hover</title>
    <desc>Created with Sketch.</desc>
    <defs></defs>
    <g id="Symbols" stroke="none" stroke-width="1" fill="none" fill-rule="evenodd">
        <g id="icon/remove-hover" fill-rule="nonzero" fill="#5c8ff7">
            <path d="M10.5,0 C4.725,0 0,4.725 0,10.5 C0,16.275 4.725,21 10.5,21 C16.275,21 21,16.275 21,10.5 C21,4.725 16.275,0 10.5,0 Z M14.896875,13.978125 C15.159375,14.240625 15.159375,14.634375 14.896875,14.896875 C14.765625,15.028125 14.634375,15.09375 14.4375,15.09375 C14.240625,15.09375 14.109375,15.028125 13.978125,14.896875 L10.5,11.41875 L7.021875,14.896875 C6.890625,15.028125 6.759375,15.09375 6.5625,15.09375 C6.365625,15.09375 6.234375,15.028125 6.103125,14.896875 C5.840625,14.634375 5.840625,14.240625 6.103125,13.978125 L9.58125,10.5 L6.103125,7.021875 C5.840625,6.759375 5.840625,6.365625 6.103125,6.103125 C6.365625,5.840625 6.759375,5.840625 7.021875,6.103125 L10.5,9.58125 L13.978125,6.103125 C14.240625,5.840625 14.634375,5.840625 14.896875,6.103125 C15.159375,6.365625 15.159375,6.759375 14.896875,7.021875 L11.41875,10.5 L14.896875,13.978125 Z" id="Shape"></path>
        </g>
    </g>
</svg>