<?xml version="1.0" encoding="UTF-8" standalone="no"?>
<svg width="22px" height="21px" viewBox="0 0 22 21" version="1.1" xmlns="http://www.w3.org/2000/svg" xmlns:xlink="http://www.w3.org/1999/xlink">
    <!-- Generator: Sketch 43.2 (39069) - http://www.bohemiancoding.com/sketch -->
    <title>icon/swarm</title>
    <desc>Created with Sketch.</desc>
    <defs></defs>
    <g id="Symbols" stroke="none" stroke-width="1" fill="none" fill-rule="evenodd">
        <g id="icon/swarm" fill-rule="nonzero" fill="#3F4A57">
            <path d="M15.84,13.95 C15.5466667,13.95 15.3266667,13.8 15.18,13.575 L13.2733333,9.825 L14.5933333,9.15 L16.5,12.9 C16.72,13.275 16.5733333,13.725 16.2066667,13.95 C16.1333333,13.875 15.9866667,13.95 15.84,13.95 Z" id="Shape"></path>
            <path d="M6.67333333,10.875 L8.58,7.425 C8.8,7.05 9.24,6.9 9.60666667,7.125 C9.97333333,7.35 10.12,7.8 9.9,8.175 L7.99333333,11.625 L6.67333333,10.875 Z" id="Shape"></path>
            <path d="M11.7333333,17.25 L8.06666667,17.25 C7.62666667,17.25 7.33333333,16.95 7.33333333,16.5 C7.33333333,16.05 7.62666667,15.75 8.06666667,15.75 L11.7333333,15.75 L11.7333333,17.25 Z" id="Shape"></path>
            <path d="M4.4,12 C1.98,12 0,14.025 0,16.5 C0,18.975 1.98,21 4.4,21 C6.82,21 8.8,18.975 8.8,16.5 C8.8,14.025 6.82,12 4.4,12 Z" id="Shape"></path>
            <path d="M17.6,12 C15.18,12 13.2,14.025 13.2,16.5 C13.2,18.975 15.18,21 17.6,21 C20.02,21 22,18.975 22,16.5 C22,14.025 20.02,12 17.6,12 Z" id="Shape"></path>
            <path d="M15.4,4.5 C15.4,2.025 13.42,0 11,0 C8.58,0 6.6,2.025 6.6,4.5 C6.6,6.975 8.58,9 11,9 C13.42,9 15.4,6.975 15.4,4.5 Z" id="Shape"></path>
        </g>
    </g>
</svg>