<?xml version="1.0" encoding="UTF-8" standalone="no"?>
<svg width="20px" height="21px" viewBox="0 0 20 21" version="1.1" xmlns="http://www.w3.org/2000/svg" xmlns:xlink="http://www.w3.org/1999/xlink">
    <!-- Generator: Sketch 43.2 (39069) - http://www.bohemiancoding.com/sketch -->
    <title>icon/trash</title>
    <desc>Created with Sketch.</desc>
    <defs></defs>
    <g id="Symbols" stroke="none" stroke-width="1" fill="none" fill-rule="evenodd">
        <g id="icon/trash" fill-rule="nonzero" fill="#3F4A57">
            <path d="M19.3333333,4.59375 C19.702,4.59375 20,4.29975 20,3.9375 C20,3.57525 19.702,3.28125 19.3333333,3.28125 L14,3.28125 L14,0.65625 C14,0.294 13.702,0 13.3333333,0 L6.66666667,0 C6.298,0 6,0.294 6,0.65625 L6,3.28125 L0.666666667,3.28125 C0.298,3.28125 0,3.57525 0,3.9375 C0,4.29975 0.298,4.59375 0.666666667,4.59375 L19.3333333,4.59375 Z M7.33333333,1.3125 L12.6666667,1.3125 L12.6666667,3.28125 L7.33333333,3.28125 L7.33333333,1.3125 Z" id="Shape"></path>
            <path d="M2,5.90625 L2,20.34375 C2,20.706 2.298,21 2.66666667,21 L17.3333333,21 C17.702,21 18,20.706 18,20.34375 L18,5.90625 L2,5.90625 Z M7.33333333,17.71875 L6,17.71875 L6,9.1875 L7.33333333,9.1875 L7.33333333,17.71875 Z M10.6666667,17.71875 L9.33333333,17.71875 L9.33333333,9.1875 L10.6666667,9.1875 L10.6666667,17.71875 Z M14,17.71875 L12.6666667,17.71875 L12.6666667,9.1875 L14,9.1875 L14,17.71875 Z" id="Shape"></path>
        </g>
    </g>
</svg>